# xmcd CD database file
#
# Track frame offsets:
#	150
#	12593
#	27195
#	39113
#	61895
#	83278
#	104440
#	123555
#	134435
#	155820
#	167643
#	185180
#	198115
#	209680
#	228758
#
# Disc length: 3318 seconds
#
# Revision: 2
# Processed by: cddbd v1.5.2PL0 Copyright (c) Steve Scherf et al.
# Submitted via: CDex 1.51
#
DISCID=c60cf40f
DTITLE=Lightnin' Hopkins - Talk of the town
DYEAR=2005
DGENRE=Blues
TTITLE0=Shaggy Dog
TTITLE1=Sante Fe Blues
TTITLE2=Shining Moon
TTITLE3=I'll Be Gone
TTITLE4=Shake It Baby
TTITLE5=Goin' Back Home
TTITLE6=Good Times
TTITLE7=I'm wit'it
TTITLE8=Don't Wake Me
TTITLE9=Talk Of The Town
TTITLE10=California Landslide
TTITLE11=Rosie Mae
TTITLE12=Easy On Your Heels
TTITLE13=Leave Jike Mary Alone
TTITLE14=You Treat Poor Lightnin' Wrong
EXTD=YEAR: 2005
EXTT0=
EXTT1=
EXTT2=
EXTT3=
EXTT4=
EXTT5=
EXTT6=
EXTT7=
EXTT8=
EXTT9=
EXTT10=
EXTT11=
EXTT12=
EXTT13=
EXTT14=
PLAYORDER=
